# xmcd
#
# Track frame offsets: 
#        212
#        7200
#        31625
#        52837
#        73387
#        92662
#        113140
#        136165
#        158337
#        173212
#
# Disc length: 2583 seconds
#
# Revision: 1
# Processed by: cddbd v1.5.2PL0 Copyright (c) Steve Scherf et al.
# Submitted via: ExactAudioCopyFreeDBPlugin 1.0
#
DISCID=760a150a
DTITLE=Неоновый Мальчик - Neon Boy Forever
DYEAR=1993
DGENRE=Pop
TTITLE0=Neon Boy Forever (Part One)
TTITLE1=Вечер с тобой
TTITLE2=Море по колено
TTITLE3=Индустриальная песня
TTITLE4=Сладкая ночь
TTITLE5=Валя Терешкова
TTITLE6=Боль не пройдёт
TTITLE7=Neon Boy Forever (Part Two)
TTITLE8=Каникулы в Сан-Диего
TTITLE9=Индустриальная песня (Instrumental Version)
EXTD=
EXTT0=
EXTT1=
EXTT2=
EXTT3=
EXTT4=
EXTT5=
EXTT6=
EXTT7=
EXTT8=
EXTT9=
PLAYORDER=
